<?xml version="1.0" standalone="no"?>
<!DOCTYPE svg PUBLIC "-//W3C//DTD SVG 20010904//EN"
 "http://www.w3.org/TR/2001/REC-SVG-20010904/DTD/svg10.dtd">
<svg version="1.0" xmlns="http://www.w3.org/2000/svg"
 width="360.000000pt" height="360.000000pt" viewBox="0 0 360.000000 360.000000"
 preserveAspectRatio="xMidYMid meet">

<g transform="translate(0.000000,360.000000) scale(0.100000,-0.100000)"
fill="#000000" stroke="none">
<path d="M1768 2863 c-8 -10 -69 -112 -135 -228 -67 -115 -236 -410 -377 -655
-225 -390 -256 -447 -247 -467 l11 -23 257 0 258 1 -45 39 -45 39 -167 3 -166
3 231 401 c128 220 282 486 342 592 61 105 112 192 115 192 3 0 37 -55 75
-123 39 -67 192 -333 342 -592 l271 -470 -165 -3 -164 -2 -51 -40 -50 -40 261
0 c250 0 261 1 271 20 13 25 33 -12 -261 497 -133 230 -295 513 -362 628 -132
230 -142 245 -167 245 -9 0 -24 -8 -32 -17z"/>
<path d="M1715 2246 c-117 -29 -206 -99 -257 -204 -31 -62 -33 -74 -33 -167 0
-88 3 -107 27 -158 38 -81 115 -158 191 -192 113 -51 257 -43 356 19 54 35
120 111 149 174 24 50 27 70 27 157 0 93 -2 105 -33 167 -53 109 -155 186
-274 208 -63 12 -90 12 -153 -4z m200 -90 c45 -19 100 -61 124 -95 l19 -26
-258 0 -258 0 20 27 c27 39 104 90 158 105 53 15 145 10 195 -11z m-65 -236
c42 -42 11 -113 -50 -113 -61 0 -92 71 -50 113 11 11 33 20 50 20 17 0 39 -9
50 -20z m-224 -99 c48 -49 99 -143 110 -203 5 -33 4 -38 -12 -38 -29 0 -118
55 -149 92 -45 54 -75 127 -75 186 l0 53 40 -22 c22 -13 60 -43 86 -68z m448
-72 c-33 -72 -103 -140 -170 -163 l-46 -16 6 43 c15 98 91 209 186 269 l45 29
3 -51 c2 -38 -4 -65 -24 -111z"/>
<path d="M812 1168 l3 -153 70 -3 c92 -4 148 12 185 54 51 58 52 137 2 196
-38 44 -79 58 -177 58 l-86 0 3 -152z m192 63 c15 -16 21 -34 21 -66 0 -60
-28 -88 -87 -89 l-43 -1 -3 94 -3 94 47 -6 c29 -3 54 -13 68 -26z"/>
<path d="M1170 1165 l0 -155 40 0 40 0 0 45 c0 43 1 45 30 45 26 0 33 -6 52
-45 21 -43 24 -45 65 -45 24 0 43 3 43 6 0 3 -14 25 -30 49 l-30 44 25 25 c19
20 25 35 25 71 0 90 -38 115 -175 115 l-85 0 0 -155z m174 79 c22 -21 20 -61
-3 -74 -11 -5 -36 -10 -55 -10 l-36 0 0 50 0 50 39 0 c23 0 46 -7 55 -16z"/>
<path d="M1500 1165 l0 -155 40 0 40 0 0 155 0 155 -40 0 -40 0 0 -155z"/>
<path d="M1630 1313 c0 -3 26 -73 58 -155 l57 -148 40 0 40 0 58 148 c31 81
57 151 57 155 0 4 -17 7 -38 7 l-38 0 -23 -72 c-13 -39 -31 -89 -40 -110 l-16
-38 -39 110 -38 110 -39 0 c-22 0 -39 -3 -39 -7z"/>
<path d="M1990 1165 l0 -155 40 0 40 0 0 155 0 155 -40 0 -40 0 0 -155z"/>
<path d="M2150 1165 l0 -155 35 0 34 0 3 93 3 92 70 -92 c63 -84 73 -93 102
-93 l33 0 0 155 0 155 -35 0 -34 0 -3 -92 -3 -93 -70 93 c-63 83 -73 92 -102
92 l-33 0 0 -155z"/>
<path d="M2585 1306 c-41 -18 -83 -69 -90 -110 -15 -79 43 -167 120 -182 40
-7 102 0 140 18 23 10 25 16 25 75 l0 63 -29 0 c-28 0 -30 -3 -33 -42 -3 -36
-7 -43 -31 -49 -55 -15 -117 31 -117 86 0 31 29 72 60 85 26 11 37 10 73 -4
39 -15 42 -15 60 3 24 23 16 38 -29 57 -42 17 -109 17 -149 0z"/>
<path d="M1220 907 c-18 -9 -25 -21 -25 -42 0 -26 7 -33 50 -55 57 -29 70 -56
31 -66 -26 -6 -43 -4 -78 11 -11 4 -18 3 -18 -4 0 -18 63 -41 91 -34 36 9 49
23 49 53 0 32 -11 43 -62 59 -67 22 -61 66 8 58 25 -2 47 -1 49 4 13 20 -63
33 -95 16z"/>
<path d="M1425 906 c-39 -17 -55 -37 -61 -78 -11 -76 69 -134 143 -103 19 8
32 19 28 25 -4 7 -12 7 -25 0 -47 -25 -102 -6 -119 41 -24 69 51 126 119 89
13 -7 21 -7 25 0 4 6 -9 17 -29 25 -42 18 -43 18 -81 1z"/>
<path d="M1590 821 c0 -61 4 -101 10 -101 6 0 10 18 10 40 l0 40 60 0 60 0 0
-40 c0 -22 5 -40 10 -40 6 0 10 41 10 102 0 63 -4 98 -9 93 -5 -6 -11 -28 -13
-49 -3 -42 -3 -42 -103 -37 -11 1 -15 12 -15 40 0 22 -4 43 -10 46 -6 4 -10
-30 -10 -94z"/>
<path d="M1883 913 c-34 -7 -73 -59 -73 -99 0 -52 45 -97 98 -97 53 0 87 23
102 67 16 49 -7 102 -54 121 -20 8 -39 14 -43 14 -4 -1 -18 -4 -30 -6z m84
-45 c49 -46 14 -128 -54 -128 -41 0 -83 37 -83 73 0 13 9 36 21 51 27 34 82
36 116 4z"/>
<path d="M2120 907 c-49 -17 -76 -72 -60 -122 15 -45 49 -68 102 -68 34 0 47
6 70 32 38 42 38 90 1 130 -34 35 -66 43 -113 28z m95 -42 c14 -13 25 -36 25
-50 0 -14 -11 -37 -25 -50 -50 -51 -135 -18 -135 52 0 69 84 100 135 48z"/>
<path d="M2319 913 c0 -4 -2 -50 -2 -101 l-2 -92 58 0 c36 0 56 4 52 10 -3 6
-24 10 -46 10 l-39 0 0 84 c0 47 -4 88 -10 91 -5 3 -10 3 -11 -2z"/>
</g>
</svg>
